<?xml version="1.0" encoding="UTF-8"?>
<svg id="Layer_2" xmlns="http://www.w3.org/2000/svg" viewBox="0 0 828 286">
	<defs>
		<style>.cls-1,.cls-2{stroke:	hsl(222, 65%, 90%);}.cls-1,.cls-2,.cls-3,.cls-4{stroke-miterlimit:10;}.cls-2{fill:none;stroke-width:8px;}.cls-3,.cls-4{stroke:	hsl(222, 65%, 90%);}.cls-4{stroke-linecap:round;stroke-width:.25px;}</style>
	</defs>
	<g id="cercul" fill="	hsl(222, 65%, 90%)">
		<circle class="cls-2" cx="59.5" cy="56.5" r="18.5" />
		<circle class="cls-2" cx="22.5" cy="143.5" r="18.5" />
		<circle class="cls-2" cx="59.5" cy="230.5" r="18.5" />
		<circle class="cls-2" cx="147.5" cy="263.5" r="18.5" />
		<circle class="cls-2" cx="147.5" cy="22.5" r="18.5" />
		<circle class="cls-2" cx="234.5" cy="56.5" r="18.5" />
		<circle class="cls-2" cx="271.5" cy="143.5" r="18.5" />
		<circle class="cls-2" cx="234.5" cy="230.5" r="18.5" />
		<rect class="cls-4" x="243.85" y="92.49" width="34.79" height="9.85" rx="4.92" ry="4.92" transform="translate(244.03 -180.86) rotate(66.01)" />
		<rect class="cls-4" x="244.63" y="184.69" width="34.79" height="9.85" rx="4.92" ry="4.92" transform="translate(542.49 28.54) rotate(114.24)" />
		<rect class="cls-4" x="176.78" y="249.88" width="34.79" height="9.85" rx="4.92" ry="4.92" transform="translate(462.34 430.06) rotate(160.47)" />
		<rect class="cls-4" x="82.69" y="249.61" width="34.79" height="9.85" rx="4.92" ry="4.92" transform="translate(97.92 -18.96) rotate(21.01)" />
		<path class="cls-4" d="M202.01,42.01l-22.74-10.24c-2.48-1.12-3.59-4.03-2.47-6.51h0c1.12-2.48,4.03-3.59,6.51-2.47l22.74,10.24c2.48,1.12,3.59,4.03,2.47,6.51h0c-1.12,2.48-4.03,3.59-6.51,2.47Z" />
		<rect class="cls-4" x="16.27" y="185.48" width="34.79" height="9.85" rx="4.92" ry="4.92" transform="translate(193.93 82.24) rotate(66.01)" />
		<rect class="cls-4" x="16.27" y="92.48" width="34.79" height="9.85" rx="4.92" ry="4.92" transform="translate(136.19 107.76) rotate(114.83)" />
		<rect class="cls-4" x="81.39" y="27.48" width="34.79" height="9.85" rx="4.92" ry="4.92" transform="translate(202.22 21.85) rotate(156.01)" />
	</g>
	<g id="oaile" fill="	hsl(222, 65%, 90%)">
		<ellipse class="cls-1" cx="318.75" cy="203" rx="10.75" ry="9.5" />
		<path class="cls-3" d="M214.2,119.51c12.25,37.43-7.64,77.53-44.42,89.57-36.78,12.03-76.53-8.56-88.77-45.99l-2.1-6.43c-.49-.75-.68-2.08-.97-2.97-.66-2.02-.69-4.1-.18-6,.86-3.23,3.23-5.95,6.59-7.05,5.33-1.74,11.1,1.27,12.89,6.74,.03,.1,.07,.21,.09,.31,.12,.98,.25,1.95,.44,2.94,.41,2.33,.99,4.65,1.74,6.97,8.76,26.77,37.69,41.34,64.61,32.53,26.92-8.81,41.64-37.66,32.88-64.43-5.95-18.18-21.19-30.73-38.79-34.16-.02,0-.03,0-.05,0-.56-.11-1.12-.21-1.67-.3-3.27-.88-6.06-3.37-7.21-6.89-1.79-5.46,1.09-11.31,6.41-13.05,.57-.19,.97-.32,1.71-.39,2.46-.26,3.76,.79,6.55,1.34,22.66,5.37,42.31,22.98,50.26,47.27Z" />
		<rect class="cls-3" x="732.5" y="71.5" width="95" height="20" rx="10" ry="10" />
		<rect class="cls-3" x="732.5" y="131.5" width="95" height="20" rx="10" ry="10" />
		<rect class="cls-3" x="732.5" y="192.5" width="95" height="21" rx="10" ry="10" />
		<rect class="cls-3" x="618.5" y="192.5" width="95" height="21" rx="10" ry="10" />
		<rect class="cls-3" x="618.5" y="131.5" width="95" height="20" rx="10" ry="10" />
		<rect class="cls-3" x="618.5" y="71.5" width="95" height="20" rx="10" ry="10" />
		<rect class="cls-3" x="468.5" y="71.5" width="20" height="142" rx="7.5" ry="7.5" />
		<path class="cls-3" d="M599.5,200.86v4.86c0,3.99-3.24,7.27-7.2,7.27h-41.3c-23.2,0-41.5-19.21-41.5-42.91V78.21c0-3.96,3.66-7.21,8.12-7.21h3.26c4.46,0,8.12,3.25,8.12,7.21v91.88c0,12.97,9.7,23.5,22,23.5h41.3c3.96,0,7.2,3.28,7.2,7.27Z" />
		<path class="cls-3" d="M445.51,210.07l-5.14,2.22c-4.03,1.74-8.75,.16-10.48-3.51l-44.37-93.24-.02-.04s-.01-.03-.02-.05-.01-.04-.03-.07h0c-.31-.76-1.57-3.79-1.6-3.85-.74-1.86-1.61-3.93-2.33-5.07-.4-.62-.74-.38-.99,.01-.13,.21-.28,.47-.38,.67h0l-.11,.21c-.02,.06-.04,.09-.04,.09l-36.59,67.75c-2.09,3.89-7.07,5.48-11.04,3.53l-4.82-2.35c-3.98-1.95-5.52-6.72-3.89-9.65l47.06-87.16v.03l-.09,.15h0l.1-.15c4.22-8.07,7.26-8.34,9.62-8.53,4.17-.35,7.8,1.08,11.88,8.69l3.06,6.24,54.38,114.27c1.75,3.67-.12,8.09-4.15,9.82Z" />
	</g>
</svg>